<?xml version="1.0" standalone="no"?>
<!DOCTYPE svg PUBLIC "-//W3C//DTD SVG 20010904//EN"
 "http://www.w3.org/TR/2001/REC-SVG-20010904/DTD/svg10.dtd">
<svg version="1.0" xmlns="http://www.w3.org/2000/svg"
 width="512.000000pt" height="512.000000pt" viewBox="0 0 512.000000 512.000000"
 preserveAspectRatio="xMidYMid meet">

<g transform="translate(0.000000,512.000000) scale(0.100000,-0.100000)"
fill="#000000" stroke="none">
<path d="M3605 4535 c-5 -2 -44 -11 -85 -20 -148 -34 -290 -116 -409 -235
l-68 -69 -69 14 c-238 50 -482 -28 -659 -211 l-71 -72 -149 -1 c-403 0 -734
-144 -1009 -440 -122 -130 -243 -346 -292 -522 l-27 -97 -51 -6 c-199 -26
-399 -134 -524 -283 -153 -184 -222 -438 -178 -665 60 -311 269 -537 596 -644
48 -16 107 -19 490 -24 l435 -5 6 -85 c11 -160 65 -276 184 -395 81 -82 147
-124 262 -168 57 -21 71 -22 610 -25 545 -3 552 -3 573 18 27 27 27 81 -1 106
-20 18 -48 19 -558 24 -505 5 -539 7 -591 26 -342 125 -444 546 -194 801 89
91 229 153 344 153 64 0 83 23 109 133 60 252 227 464 461 582 288 146 645
126 910 -50 37 -25 112 -92 167 -149 117 -123 132 -129 245 -100 53 14 108 19
203 19 116 -1 139 -4 210 -28 334 -116 535 -436 486 -774 -39 -272 -216 -484
-484 -581 l-72 -26 -481 -6 c-456 -5 -483 -6 -503 -24 -27 -25 -28 -79 -1
-106 19 -19 33 -20 475 -20 377 0 469 3 533 16 318 66 562 292 658 611 23 76
27 106 28 228 0 157 -16 236 -78 371 -77 166 -218 315 -373 393 l-43 21 0 129
c0 146 -17 253 -60 374 -16 45 -26 85 -24 89 3 4 20 8 38 8 46 0 131 27 200
63 113 60 246 225 246 304 0 63 -77 96 -120 53 -11 -11 -29 -40 -41 -64 -46
-99 -162 -183 -283 -205 -117 -22 -126 -19 -179 53 -99 135 -285 280 -443 346
-234 97 -510 115 -738 46 l-49 -15 -30 37 c-71 85 -219 221 -297 273 -110 73
-191 114 -318 159 l-104 37 53 47 c125 113 306 159 479 122 137 -29 140 -28
244 73 133 131 181 162 312 207 60 20 105 28 189 31 142 6 230 -12 355 -73
177 -87 320 -263 369 -456 11 -40 22 -80 26 -89 9 -24 43 -37 112 -43 119 -11
230 -83 296 -192 38 -65 72 -82 115 -60 53 28 55 66 7 145 -80 132 -213 222
-377 256 -23 4 -30 15 -52 83 -76 227 -276 436 -500 523 -108 41 -208 59 -329
58 -56 0 -106 -2 -112 -4z m-1312 -761 c276 -47 524 -192 712 -417 31 -37 70
-74 87 -83 42 -22 106 -20 203 6 466 121 971 -156 1128 -620 33 -97 47 -183
47 -294 l0 -88 -47 8 c-83 15 -301 10 -371 -9 l-62 -18 -32 38 c-126 149 -286
261 -466 324 -198 69 -467 67 -678 -5 -202 -68 -388 -203 -509 -366 -60 -81
-136 -236 -160 -324 -16 -57 -22 -67 -44 -72 -171 -35 -262 -78 -358 -167 -70
-66 -134 -157 -160 -229 l-17 -48 -416 0 c-470 0 -502 4 -643 77 -108 56 -231
182 -286 293 -54 112 -75 208 -68 325 21 338 276 596 619 623 105 9 123 22
138 101 71 363 307 674 635 838 233 117 482 152 748 107z"/>
</g>
</svg>
