<?xml version="1.0" standalone="no"?>
<svg version="1.0" xmlns="http://www.w3.org/2000/svg"
 width="512.000000pt" height="512.000000pt" viewBox="0 0 512.000000 512.000000"
 preserveAspectRatio="xMidYMid meet" fill="white">

<g transform="translate(40.1000000,532.000000) scale(0.090000,-0.0950000)"
fill="#fff" stroke="" stroke-width="1" >
<path d="M2156 4789 c-556 -77 -998 -492 -1091 -1023 -8 -49 -15 -105 -15
-125 l0 -37 -74 -18 c-320 -75 -546 -357 -546 -681 0 -193 61 -337 205 -481
77 -78 105 -98 185 -137 170 -83 59 -78 1597 -75 l1368 3 92 32 c350 123 588
355 688 673 147 469 -83 966 -548 1185 -144 68 -225 86 -418 92 l-166 5 -54
75 c-65 91 -210 232 -304 294 -145 97 -299 162 -470 200 -105 23 -345 33 -449
18z m409 -229 c286 -59 532 -230 691 -481 65 -104 85 -114 179 -99 420 69 832
-190 936 -589 28 -104 28 -267 0 -372 -61 -238 -236 -436 -473 -535 -161 -68
-62 -64 -1505 -64 -1429 0 -1357 -3 -1481 58 -72 34 -181 141 -216 210 -107
211 -51 454 137 597 84 64 153 91 263 105 49 6 99 15 111 20 37 15 50 57 56
185 8 157 35 265 102 400 64 131 156 251 257 334 266 220 600 302 943 231z"/>
<path d="M3820 1744 c-242 -173 -275 -189 -384 -182 -90 6 -139 31 -231 116
-128 118 -234 162 -390 162 -152 0 -247 -39 -382 -156 -89 -78 -139 -99 -238
-98 -101 0 -141 19 -256 116 -112 95 -171 132 -249 158 -134 45 -282 35 -408
-29 -56 -28 -412 -315 -412 -331 0 -6 93 -123 126 -159 1 -2 85 65 184 147
200 166 238 187 346 186 91 -1 143 -26 261 -124 161 -135 262 -180 405 -180
141 0 251 42 363 139 39 33 93 73 120 88 44 25 60 28 140 28 110 0 142 -15
261 -120 113 -101 187 -137 319 -156 96 -13 212 8 298 53 73 39 467 317 467
330 0 10 -109 162 -118 165 -4 1 -104 -68 -222 -153z"/>
<path d="M3839 864 c-245 -176 -286 -197 -384 -197 -95 0 -158 29 -257 121
-230 213 -520 219 -752 13 -100 -89 -141 -106 -251 -106 -110 0 -132 11 -269
125 -53 44 -117 91 -142 106 -162 95 -395 89 -546 -12 -27 -19 -123 -95 -213
-170 l-164 -136 66 -79 c36 -43 69 -79 73 -79 3 0 82 63 175 141 216 180 224
184 345 184 116 0 142 -12 276 -125 158 -134 243 -171 399 -171 148 -1 276 52
392 162 75 71 129 93 228 93 104 0 150 -21 249 -112 95 -88 162 -127 268 -154
124 -31 258 -15 374 45 46 24 454 317 454 326 0 6 -89 137 -115 169 -1 1 -94
-64 -206 -144z"/>
</g>
</svg>
