<?xml version="1.0" standalone="no"?>
<!DOCTYPE svg PUBLIC "-//W3C//DTD SVG 20010904//EN"
 "http://www.w3.org/TR/2001/REC-SVG-20010904/DTD/svg10.dtd">
<svg version="1.0" xmlns="http://www.w3.org/2000/svg"
 width="512.000000pt" height="512.000000pt" viewBox="0 0 512.000000 512.000000"
 preserveAspectRatio="xMidYMid meet">

<g transform="translate(0.000000,512.000000) scale(0.100000,-0.100000)"
fill="#fff" stroke="none">
<path d="M1960 5115 c-8 -2 -49 -9 -90 -15 -237 -39 -484 -171 -658 -354 -187
-197 -298 -442 -328 -722 l-6 -61 -68 -17 c-99 -26 -272 -113 -366 -184 -327
-247 -491 -654 -429 -1062 74 -488 463 -869 960 -940 44 -6 673 -10 1705 -9
1762 0 1703 -2 1859 52 213 74 412 260 506 473 172 389 32 858 -325 1090 -81
53 -212 109 -277 120 l-40 6 -7 87 c-17 232 -106 429 -271 597 -180 184 -387
278 -640 291 -101 5 -219 -8 -301 -32 -17 -5 -24 0 -35 26 -31 77 -136 219
-228 309 -173 172 -363 274 -601 326 -68 14 -323 28 -360 19z m330 -340 c100
-26 256 -105 340 -172 123 -97 211 -220 275 -380 56 -142 124 -186 226 -147
186 70 178 68 309 68 110 0 134 -3 198 -26 107 -38 177 -83 259 -165 130 -131
192 -298 178 -483 -4 -52 -7 -112 -7 -132 0 -82 76 -148 169 -148 244 -1 458
-160 539 -400 26 -76 26 -244 0 -320 -62 -185 -190 -313 -376 -376 -53 -18
-119 -19 -1730 -19 -1533 0 -1680 1 -1735 17 -106 29 -172 58 -247 107 -316
207 -446 592 -318 944 39 107 91 188 179 280 127 133 272 207 473 241 150 26
178 59 178 218 0 58 7 145 15 193 62 353 349 643 702 710 96 18 281 13 373
-10z"/>
<path d="M95 1586 c-94 -41 -124 -168 -58 -247 35 -41 79 -59 143 -59 94 0
194 -22 330 -72 156 -58 272 -84 326 -73 50 9 110 68 119 118 19 98 -37 176
-140 196 -33 7 -129 37 -213 67 -213 76 -426 105 -507 70z"/>
<path d="M1615 1593 c-148 -19 -273 -61 -309 -104 -59 -70 -55 -161 9 -218 54
-47 100 -55 176 -32 109 34 196 44 314 38 116 -6 163 -18 385 -96 239 -84 521
-82 756 5 229 84 245 88 414 88 169 0 185 -4 414 -88 237 -88 535 -88 772 0
173 64 252 84 365 92 117 9 141 19 183 76 16 20 21 42 21 86 0 63 -16 95 -69
134 -60 45 -295 26 -472 -40 -229 -84 -245 -88 -414 -88 -169 0 -185 4 -414
88 -237 88 -535 88 -772 0 -226 -83 -245 -87 -409 -88 -166 -1 -172 1 -378 75
-86 31 -175 55 -235 64 -89 14 -263 18 -337 8z"/>
<path d="M95 1026 c-96 -42 -124 -171 -54 -251 37 -41 68 -52 185 -59 94 -6
178 -28 348 -90 55 -21 143 -44 195 -51 200 -31 406 -12 577 51 229 84 245 88
414 88 170 0 163 1 430 -93 199 -70 419 -80 649 -30 142 30 194 182 95 276
-47 43 -85 49 -212 28 -78 -13 -134 -16 -212 -12 -119 7 -154 16 -333 81 -269
98 -555 102 -803 10 -229 -84 -245 -88 -414 -88 -169 0 -185 4 -414 88 -156
58 -379 83 -451 52z"/>
<path d="M3374 1021 c-61 -28 -89 -73 -89 -143 0 -96 58 -151 172 -163 75 -8
166 -34 317 -89 118 -44 271 -69 378 -64 65 4 82 9 113 33 89 67 85 190 -8
259 -21 15 -50 21 -134 27 -140 10 -151 12 -326 76 -96 35 -182 59 -245 68
-122 19 -128 19 -178 -4z"/>
<path d="M4795 1030 c-92 -13 -145 -59 -161 -139 -10 -46 20 -116 64 -149 35
-26 38 -27 161 -24 147 3 179 11 220 57 71 81 42 210 -56 251 -34 15 -143 17
-228 4z"/>
<path d="M95 466 c-96 -42 -124 -171 -54 -251 37 -41 68 -52 185 -59 94 -6
178 -28 348 -90 237 -88 535 -88 772 0 188 69 253 85 370 91 83 4 136 1 208
-12 l96 -17 48 24 c62 31 92 76 92 141 0 55 -24 104 -65 131 -42 27 -144 46
-285 52 -169 8 -298 -11 -436 -62 -229 -84 -245 -88 -414 -88 -169 0 -185 4
-414 88 -156 58 -379 83 -451 52z"/>
<path d="M3160 465 c-47 -8 -130 -30 -185 -50 -155 -58 -246 -83 -324 -91
-111 -11 -170 -61 -178 -151 -5 -67 26 -120 90 -152 47 -23 51 -24 150 -12 69
8 140 25 217 52 268 94 260 93 430 93 169 0 185 -4 414 -88 237 -88 535 -88
772 0 173 64 252 84 365 92 117 9 141 19 183 76 16 20 21 42 21 86 0 63 -16
95 -69 134 -60 45 -295 26 -472 -40 -229 -84 -245 -88 -414 -88 -169 0 -185 4
-414 88 -169 63 -389 82 -586 51z"/>
</g>
</svg>
