<?xml version="1.0" standalone="no"?>
<!DOCTYPE svg PUBLIC "-//W3C//DTD SVG 20010904//EN"
 "http://www.w3.org/TR/2001/REC-SVG-20010904/DTD/svg10.dtd">
<svg version="1.0" xmlns="http://www.w3.org/2000/svg"
 width="512.000000pt" height="512.000000pt" viewBox="0 0 512.000000 512.000000"
 preserveAspectRatio="xMidYMid meet">

<g transform="translate(0.000000,512.000000) scale(0.100000,-0.100000)"
fill="#fff" stroke="none">
<path d="M3060 4141 c-47 -10 -125 -35 -175 -55 -125 -52 -374 -182 -540 -284
-375 -228 -506 -300 -655 -357 -380 -147 -698 -50 -1106 338 -56 53 -114 101
-129 107 -40 15 -92 -4 -116 -44 -38 -62 -23 -100 83 -202 408 -396 790 -540
1183 -445 214 52 347 118 865 430 163 99 438 239 537 275 213 76 432 44 737
-109 147 -74 179 -80 226 -37 40 36 48 85 21 129 -35 57 -342 199 -524 243
-121 30 -299 35 -407 11z"/>
<path d="M3435 3080 c-202 -32 -399 -122 -650 -299 -581 -410 -753 -502 -998
-533 -326 -41 -704 127 -1166 518 -135 114 -150 124 -192 124 -44 0 -93 -36
-103 -76 -13 -52 10 -86 125 -184 472 -401 881 -600 1235 -600 316 0 560 108
1082 479 342 242 436 295 612 342 71 20 110 23 240 23 137 0 168 -3 261 -27
225 -58 438 -168 632 -328 131 -106 149 -119 174 -119 64 0 120 64 109 124
-15 79 -310 299 -551 412 -221 103 -385 143 -600 149 -82 2 -177 0 -210 -5z"/>
<path d="M3335 1933 c-139 -29 -383 -142 -792 -365 -408 -221 -649 -324 -867
-369 -146 -30 -372 -23 -501 15 -214 63 -372 162 -613 382 -82 75 -108 94
-133 94 -90 0 -137 -89 -89 -167 29 -48 176 -192 261 -256 210 -157 443 -255
701 -293 291 -43 612 33 1033 244 72 35 247 128 390 205 424 228 563 288 713
308 159 22 334 -22 576 -142 85 -42 151 -69 171 -69 41 0 80 31 95 75 18 55
-10 101 -85 143 -156 88 -370 171 -508 197 -99 19 -260 18 -352 -2z"/>
</g>
</svg>
